<?xml version="1.0" encoding="UTF-8" standalone="no"?>
<svg width="683px" height="771px" viewBox="0 0 683 771" version="1.1" xmlns="http://www.w3.org/2000/svg" xmlns:xlink="http://www.w3.org/1999/xlink" xmlns:sketch="http://www.bohemiancoding.com/sketch/ns">
    <!-- Generator: Sketch 3.3.2 (12043) - http://www.bohemiancoding.com/sketch -->
    <title>glasses23</title>
    <desc>Created with Sketch.</desc>
    <defs></defs>
    <g id="Page-1" stroke="none" stroke-width="1" fill="none" fill-rule="evenodd" sketch:type="MSPage">
        <g id="404" sketch:type="MSArtboardGroup" transform="translate(-401.000000, -375.000000)" fill="#000000">
            <g id="glasses23" sketch:type="MSLayerGroup" transform="translate(401.000000, 375.000000)">
                <path d="M625.765125,336.028317 L555.4685,292.361302 L553.631,291.221683 L549.643625,290.847937 L536.138,289.616413 L574.143625,219.070317 L512.281125,287.416825 L461.982625,282.809333 L441.537375,270.353175 L411.377875,249.196698 L464.996125,174.404603 L468.487375,169.521397 L468.21175,165.91873 L463.464875,105.102286 L550.65425,6.36593651 L450.89025,98.044 L449.487625,99.4348254 L449.071125,102.596349 L441.3475,159.117778 L374.456375,227.985079 L327.771625,250.624286 L305.856375,226.667778 L291.217625,240.061365 L286.042,186.333841 L302.947,91.5310159 L304.055625,85.293746 L300.882875,81.813619 L216.756,0 L278.881875,90.5752063 L252.556625,181.689587 L252.323875,182.492222 L252.12175,185.819175 L248.146625,250.428222 L147.868125,201.976032 L144.144125,200.193079 L142.343375,200.205333 L18.422375,201.639048 L135.299625,226.900603 L207.2745,275.579492 L196.1515,345.310698 L0.414875,480.655778 L204.0405,384.970667 L239.632875,387.145746 L229.048875,442.515302 L148.186625,466.47181 L225.153375,462.893651 L197.85425,605.75654 L268.371375,425.617079 L274.04925,446.09346 L330.15425,430.537048 L444.158875,770.921651 L395.955125,523.079016 L435.204125,450.25981 L390.9265,499.134762 L377.592375,435.481524 L432.14775,446.706159 L626.57975,619.278794 L452.5685,407.095206 L434.407875,341.567111 L504.435,319.430317 L546.703625,318.364222 L623.168125,349.97946 L627.964,351.952349 L630.714125,348.925619 L682.501,291.570921 L625.765125,336.028317 L625.765125,336.028317 Z M341.467125,383.163206 L299.461875,401.164286 L286.244125,353.441206 L244.82075,350.880127 L242.707625,332.113175 L224.841,311.17727 L257.85475,262.198159 L288.639,284.757714 L317.353,267.142635 L361.75925,289.352952 L381.794125,258.846698 L421.092125,309.89673 L388.421375,338.999905 L403.48275,410.734635 L341.467125,383.163206 L341.467125,383.163206 Z" id="Shape" sketch:type="MSShapeGroup"></path>
            </g>
        </g>
    </g>
</svg>