<?xml version="1.0" encoding="UTF-8" standalone="no"?>
<svg width="291px" height="68px" viewBox="0 0 291 68" version="1.1" xmlns="http://www.w3.org/2000/svg" xmlns:xlink="http://www.w3.org/1999/xlink" xmlns:sketch="http://www.bohemiancoding.com/sketch/ns">
    <!-- Generator: Sketch 3.3.2 (12043) - http://www.bohemiancoding.com/sketch -->
    <title>LOGO</title>
    <desc>Created with Sketch.</desc>
    <defs></defs>
    <g id="Page-1" stroke="none" stroke-width="1" fill="none" fill-rule="evenodd" sketch:type="MSPage">
        <g id="404" sketch:type="MSArtboardGroup" transform="translate(-577.000000, -56.000000)" fill="#000000">
            <g id="LOGO" sketch:type="MSLayerGroup" transform="translate(577.000000, 56.000000)">
                <path d="M9.962,17.512 L13.496,7.556 L13.572,7.556 L16.992,17.512 L9.962,17.512 Z M10.532,0.868 L0.272,28 L6.276,28 L8.404,21.958 L18.55,21.958 L20.602,28 L26.796,28 L16.65,0.868 L10.532,0.868 Z M29.152,0.868 L29.152,28 L48.342,28 L48.342,22.984 L35.118,22.984 L35.118,0.868 L29.152,0.868 Z M51.686,0.868 L51.686,28 L72.282,28 L72.282,22.984 L57.652,22.984 L57.652,16.334 L70.8,16.334 L70.8,11.698 L57.652,11.698 L57.652,5.884 L71.978,5.884 L71.978,0.868 L51.686,0.868 Z M82.96,13.788 L73.498,28 L80.186,28 L86.228,18.614 L92.156,28 L99.262,28 L89.8,13.826 L98.502,0.868 L91.966,0.868 L86.456,9.532 L81.136,0.868 L74.22,0.868 L82.96,13.788 Z M116.286,18.994 L110.51,18.994 C110.484667,20.6660084 110.788663,22.1099939 111.422,23.326 C112.055336,24.5420061 112.910328,25.5426627 113.987,26.328 C115.063672,27.1133373 116.304993,27.6896648 117.711,28.057 C119.117007,28.4243352 120.567326,28.608 122.062,28.608 C123.911343,28.608 125.538993,28.3926688 126.945,27.962 C128.351007,27.5313312 129.528995,26.9296705 130.479,26.157 C131.429005,25.3843295 132.144664,24.4660053 132.626,23.402 C133.107336,22.3379947 133.348,21.1853395 133.348,19.944 C133.348,18.4239924 133.025003,17.1763382 132.379,16.201 C131.732997,15.2256618 130.966671,14.4466696 130.08,13.864 C129.193329,13.2813304 128.300338,12.8570013 127.401,12.591 C126.501662,12.3249987 125.798669,12.1413338 125.292,12.04 C123.594658,11.6093312 122.220339,11.2546681 121.169,10.976 C120.117661,10.6973319 119.294336,10.4186681 118.699,10.14 C118.103664,9.86133194 117.704668,9.55733498 117.502,9.228 C117.299332,8.89866502 117.198,8.46800266 117.198,7.936 C117.198,7.35333042 117.324665,6.8720019 117.578,6.492 C117.831335,6.1119981 118.154331,5.7953346 118.547,5.542 C118.939669,5.2886654 119.376664,5.11133384 119.858,5.01 C120.339336,4.90866616 120.820664,4.858 121.302,4.858 C122.03667,4.858 122.71433,4.9213327 123.335,5.048 C123.95567,5.1746673 124.506664,5.38999848 124.988,5.694 C125.469336,5.99800152 125.855665,6.41599734 126.147,6.948 C126.438335,7.48000266 126.609333,8.15132928 126.66,8.962 L132.436,8.962 C132.436,7.39132548 132.138336,6.05500551 131.543,4.953 C130.947664,3.85099449 130.143338,2.94533688 129.13,2.236 C128.116662,1.52666312 126.957673,1.01366825 125.653,0.697 C124.348327,0.38033175 122.986674,0.222 121.568,0.222 C120.351994,0.222 119.136006,0.38666502 117.92,0.716 C116.703994,1.04533498 115.614671,1.55199658 114.652,2.236 C113.689329,2.92000342 112.910336,3.77499487 112.315,4.801 C111.719664,5.82700513 111.422,7.0366597 111.422,8.43 C111.422,9.67133954 111.656331,10.7289956 112.125,11.603 C112.593669,12.4770044 113.207996,13.2053304 113.968,13.788 C114.728004,14.3706696 115.589329,14.8456648 116.552,15.213 C117.514671,15.5803352 118.502662,15.8906654 119.516,16.144 C120.504005,16.4226681 121.479329,16.6759989 122.442,16.904 C123.404671,17.1320011 124.265996,17.3979985 125.026,17.702 C125.786004,18.0060015 126.400331,18.3859977 126.869,18.842 C127.337669,19.2980023 127.572,19.8933297 127.572,20.628 C127.572,21.3120034 127.394668,21.8756645 127.04,22.319 C126.685332,22.7623356 126.242003,23.1106654 125.71,23.364 C125.177997,23.6173346 124.608003,23.7883329 124,23.877 C123.391997,23.9656671 122.822003,24.01 122.29,24.01 C121.504663,24.01 120.74467,23.915001 120.01,23.725 C119.27533,23.5349991 118.635669,23.2436686 118.091,22.851 C117.546331,22.4583314 117.109335,21.9453365 116.78,21.312 C116.450665,20.6786635 116.286,19.9060046 116.286,18.994 L116.286,18.994 Z M136.882,0.868 L136.882,28 L142.848,28 L142.848,16.296 L153.83,16.296 L153.83,28 L159.796,28 L159.796,0.868 L153.83,0.868 L153.83,11.28 L142.848,11.28 L142.848,0.868 L136.882,0.868 Z M171.88,17.512 L175.414,7.556 L175.49,7.556 L178.91,17.512 L171.88,17.512 Z M172.45,0.868 L162.19,28 L168.194,28 L170.322,21.958 L180.468,21.958 L182.52,28 L188.714,28 L178.568,0.868 L172.45,0.868 Z M191.07,0.868 L191.07,28 L197.036,28 L197.036,16.79 L208.398,16.79 L208.398,12.154 L197.036,12.154 L197.036,5.884 L210.146,5.884 L210.146,0.868 L191.07,0.868 Z M213.604,0.868 L213.604,28 L219.57,28 L219.57,16.79 L230.932,16.79 L230.932,12.154 L219.57,12.154 L219.57,5.884 L232.68,5.884 L232.68,0.868 L213.604,0.868 Z M236.138,0.868 L236.138,28 L256.734,28 L256.734,22.984 L242.104,22.984 L242.104,16.334 L255.252,16.334 L255.252,11.698 L242.104,11.698 L242.104,5.884 L256.43,5.884 L256.43,0.868 L236.138,0.868 Z M266.728,13.142 L266.728,5.504 L273.264,5.504 C274.632007,5.504 275.657997,5.80166369 276.342,6.397 C277.026003,6.99233631 277.368,7.94866008 277.368,9.266 C277.368,10.6340068 277.026003,11.621997 276.342,12.23 C275.657997,12.838003 274.632007,13.142 273.264,13.142 L266.728,13.142 Z M260.762,0.868 L260.762,28 L266.728,28 L266.728,17.398 L272.694,17.398 C274.188674,17.398 275.26533,17.72733 275.924,18.386 C276.58267,19.04467 277.013332,20.0833262 277.216,21.502 C277.368001,22.5913388 277.482,23.7313274 277.558,24.922 C277.634,26.1126726 277.836665,27.1386624 278.166,28 L284.132,28 C283.853332,27.6199981 283.644334,27.1576694 283.505,26.613 C283.365666,26.0683306 283.264334,25.492003 283.201,24.884 C283.137666,24.275997 283.093333,23.6806696 283.068,23.098 C283.042667,22.5153304 283.017333,22.0086688 282.992,21.578 C282.941333,20.8939966 282.846334,20.2100034 282.707,19.526 C282.567666,18.8419966 282.346002,18.2150029 282.042,17.645 C281.737998,17.0749972 281.345336,16.5810021 280.864,16.163 C280.382664,15.7449979 279.77467,15.4346677 279.04,15.232 L279.04,15.156 C280.560008,14.547997 281.655663,13.6613392 282.327,12.496 C282.998337,11.3306608 283.334,9.95000798 283.334,8.354 C283.334,7.31532814 283.150335,6.34633783 282.783,5.447 C282.415665,4.54766217 281.88367,3.75600342 281.187,3.072 C280.49033,2.38799658 279.654338,1.84966863 278.679,1.457 C277.703662,1.06433137 276.608006,0.868 275.392,0.868 L260.762,0.868 Z" id="ALEX-SHAFFER" sketch:type="MSShapeGroup"></path>
                <path d="M3.28,38.44 L3.28,55.56 C3.28,56.1200028 3.3066664,56.7733296 3.36,57.52 C3.4133336,58.2666704 3.5466656,59.0333294 3.76,59.82 C3.9733344,60.6066706 4.2733314,61.3799962 4.66,62.14 C5.0466686,62.9000038 5.57333,63.579997 6.24,64.18 C6.90667,64.780003 7.7266618,65.2599982 8.7,65.62 C9.6733382,65.9800018 10.8533264,66.16 12.24,66.16 C14.0000088,66.16 15.4733274,65.9133358 16.66,65.42 C17.8466726,64.9266642 18.806663,64.2200046 19.54,63.3 C20.273337,62.3799954 20.7999984,61.2666732 21.12,59.96 C21.4400016,58.6533268 21.6,57.1866748 21.6,55.56 L21.6,38.44 L23.36,38.44 L23.36,55.56 C23.36,57.2666752 23.1800018,58.853326 22.82,60.32 C22.4599982,61.786674 21.8533376,63.0666612 21,64.16 C20.1466624,65.2533388 19.0066738,66.1133302 17.58,66.74 C16.1533262,67.3666698 14.373344,67.68 12.24,67.68 C10.5599916,67.68 9.120006,67.4666688 7.92,67.04 C6.719994,66.6133312 5.7266706,66.0600034 4.94,65.38 C4.1533294,64.6999966 3.5333356,63.9200044 3.08,63.04 C2.6266644,62.1599956 2.2800012,61.2733378 2.04,60.38 C1.7999988,59.4866622 1.6533336,58.6200042 1.6,57.78 C1.5466664,56.9399958 1.52,56.2000032 1.52,55.56 L1.52,38.44 L3.28,38.44 Z M28.4,38.44 L30.16,38.44 L30.16,67 L28.4,67 L28.4,38.44 Z M44.88,37.76 L46.52,37.76 L33.8,67.68 L32.16,67.68 L44.88,37.76 Z M50.28,38.44 L50.28,55.56 C50.28,56.1200028 50.3066664,56.7733296 50.36,57.52 C50.4133336,58.2666704 50.5466656,59.0333294 50.76,59.82 C50.9733344,60.6066706 51.2733314,61.3799962 51.66,62.14 C52.0466686,62.9000038 52.57333,63.579997 53.24,64.18 C53.90667,64.780003 54.7266618,65.2599982 55.7,65.62 C56.6733382,65.9800018 57.8533264,66.16 59.24,66.16 C61.0000088,66.16 62.4733274,65.9133358 63.66,65.42 C64.8466726,64.9266642 65.806663,64.2200046 66.54,63.3 C67.273337,62.3799954 67.7999984,61.2666732 68.12,59.96 C68.4400016,58.6533268 68.6,57.1866748 68.6,55.56 L68.6,38.44 L70.36,38.44 L70.36,55.56 C70.36,57.2666752 70.1800018,58.853326 69.82,60.32 C69.4599982,61.786674 68.8533376,63.0666612 68,64.16 C67.1466624,65.2533388 66.0066738,66.1133302 64.58,66.74 C63.1533262,67.3666698 61.373344,67.68 59.24,67.68 C57.5599916,67.68 56.120006,67.4666688 54.92,67.04 C53.719994,66.6133312 52.7266706,66.0600034 51.94,65.38 C51.1533294,64.6999966 50.5333356,63.9200044 50.08,63.04 C49.6266644,62.1599956 49.2800012,61.2733378 49.04,60.38 C48.7999988,59.4866622 48.6533336,58.6200042 48.6,57.78 C48.5466664,56.9399958 48.52,56.2000032 48.52,55.56 L48.52,38.44 L50.28,38.44 Z M72.92,38.44 L74.96,38.44 L84,51 L93.24,38.44 L95.24,38.44 L85.16,52.32 L95.8,67 L93.68,67 L84,53.64 L74.28,67 L72.2,67 L82.92,52.32 L72.92,38.44 Z M108.76,38.44 L118.12,38.44 C120.680013,38.44 122.806658,38.839996 124.5,39.64 C126.193342,40.440004 127.546662,41.50666 128.56,42.84 C129.573338,44.17334 130.286665,45.6933248 130.7,47.4 C131.113335,49.1066752 131.32,50.8666576 131.32,52.68 C131.32,54.7066768 131.060003,56.5933246 130.54,58.34 C130.019997,60.0866754 129.213339,61.5999936 128.12,62.88 C127.026661,64.1600064 125.646675,65.166663 123.98,65.9 C122.313325,66.633337 120.333345,67 118.04,67 L108.76,67 L108.76,38.44 Z M118.2,65.48 C119.53334,65.48 120.873327,65.2733354 122.22,64.86 C123.566673,64.4466646 124.786661,63.7533382 125.88,62.78 C126.973339,61.8066618 127.859997,60.5000082 128.54,58.86 C129.220003,57.2199918 129.56,55.1600124 129.56,52.68 C129.56,50.7333236 129.366669,49.0666736 128.98,47.68 C128.593331,46.2933264 128.08667,45.1266714 127.46,44.18 C126.83333,43.2333286 126.113337,42.4866694 125.3,41.94 C124.486663,41.3933306 123.646671,40.9733348 122.78,40.68 C121.913329,40.3866652 121.046671,40.1933338 120.18,40.1 C119.313329,40.0066662 118.533337,39.96 117.84,39.96 L110.52,39.96 L110.52,65.48 L118.2,65.48 Z M135.44,38.44 L154.64,38.44 L154.64,39.96 L137.2,39.96 L137.2,51.4 L153.6,51.4 L153.6,52.92 L137.2,52.92 L137.2,65.48 L154.84,65.48 L154.84,67 L135.44,67 L135.44,38.44 Z M176.48,46.6 C176.426666,45.3733272 176.166669,44.3066712 175.7,43.4 C175.233331,42.4933288 174.600004,41.7333364 173.8,41.12 C172.999996,40.5066636 172.046672,40.0466682 170.94,39.74 C169.833328,39.4333318 168.626673,39.28 167.32,39.28 C166.519996,39.28 165.660005,39.3733324 164.74,39.56 C163.819995,39.7466676 162.966671,40.073331 162.18,40.54 C161.393329,41.006669 160.746669,41.6333294 160.24,42.42 C159.733331,43.2066706 159.48,44.1866608 159.48,45.36 C159.48,46.5066724 159.759997,47.4399964 160.32,48.16 C160.880003,48.8800036 161.613329,49.4599978 162.52,49.9 C163.426671,50.3400022 164.466661,50.693332 165.64,50.96 C166.813339,51.226668 167.999994,51.4799988 169.2,51.72 C170.426673,51.9600012 171.619994,52.246665 172.78,52.58 C173.940006,52.913335 174.979995,53.3666638 175.9,53.94 C176.820005,54.5133362 177.559997,55.2599954 178.12,56.18 C178.680003,57.1000046 178.96,58.2533264 178.96,59.64 C178.96,61.1333408 178.640003,62.3866616 178,63.4 C177.359997,64.4133384 176.553338,65.2399968 175.58,65.88 C174.606662,66.5200032 173.526673,66.9799986 172.34,67.26 C171.153327,67.5400014 170.013339,67.68 168.92,67.68 C167.239992,67.68 165.666674,67.5000018 164.2,67.14 C162.733326,66.7799982 161.453339,66.1933374 160.36,65.38 C159.266661,64.5666626 158.40667,63.5200064 157.78,62.24 C157.15333,60.9599936 156.853333,59.4000092 156.88,57.56 L158.64,57.56 C158.56,59.1333412 158.786664,60.4599946 159.32,61.54 C159.853336,62.6200054 160.593329,63.5066632 161.54,64.2 C162.486671,64.8933368 163.599994,65.3933318 164.88,65.7 C166.160006,66.0066682 167.50666,66.16 168.92,66.16 C169.773338,66.16 170.686662,66.0533344 171.66,65.84 C172.633338,65.6266656 173.526663,65.2666692 174.34,64.76 C175.153337,64.2533308 175.833331,63.5866708 176.38,62.76 C176.926669,61.9333292 177.2,60.8933396 177.2,59.64 C177.2,58.439994 176.920003,57.4600038 176.36,56.7 C175.799997,55.9399962 175.060005,55.326669 174.14,54.86 C173.219995,54.393331 172.180006,54.0200014 171.02,53.74 C169.859994,53.4599986 168.666673,53.2000012 167.44,52.96 C166.239994,52.7199988 165.053339,52.4400016 163.88,52.12 C162.706661,51.7999984 161.666671,51.3666694 160.76,50.82 C159.853329,50.2733306 159.120003,49.566671 158.56,48.7 C157.999997,47.833329 157.72,46.7200068 157.72,45.36 C157.72,43.9999932 158.006664,42.8333382 158.58,41.86 C159.153336,40.8866618 159.899995,40.100003 160.82,39.5 C161.740005,38.899997 162.773328,38.4600014 163.92,38.18 C165.066672,37.8999986 166.199994,37.76 167.32,37.76 C168.813341,37.76 170.20666,37.926665 171.5,38.26 C172.79334,38.593335 173.926662,39.1133298 174.9,39.82 C175.873338,40.5266702 176.65333,41.4399944 177.24,42.56 C177.82667,43.6800056 178.16,45.0266588 178.24,46.6 L176.48,46.6 Z M183.04,38.44 L184.8,38.44 L184.8,67 L183.04,67 L183.04,38.44 Z M188.8,52.88 C188.8,50.8533232 189.099997,48.9266758 189.7,47.1 C190.300003,45.2733242 191.173328,43.6666736 192.32,42.28 C193.466672,40.8933264 194.873325,39.7933374 196.54,38.98 C198.206675,38.1666626 200.119989,37.76 202.28,37.76 C203.746674,37.76 205.14666,37.9733312 206.48,38.4 C207.81334,38.8266688 209.006661,39.4533292 210.06,40.28 C211.113339,41.1066708 211.999996,42.1066608 212.72,43.28 C213.440004,44.4533392 213.919999,45.7866592 214.16,47.28 L212.48,47.28 C211.81333,44.7733208 210.613342,42.8133404 208.88,41.4 C207.146658,39.9866596 204.960013,39.28 202.32,39.28 C200.39999,39.28 198.706674,39.6533296 197.24,40.4 C195.773326,41.1466704 194.546672,42.1466604 193.56,43.4 C192.573328,44.6533396 191.826669,46.0999918 191.32,47.74 C190.813331,49.3800082 190.56,51.0933244 190.56,52.88 C190.56,54.6933424 190.806664,56.4066586 191.3,58.02 C191.793336,59.6333414 192.526662,61.039994 193.5,62.24 C194.473338,63.440006 195.693326,64.3933298 197.16,65.1 C198.626674,65.8066702 200.346657,66.16 202.32,66.16 C204.026675,66.16 205.559993,65.8800028 206.92,65.32 C208.280007,64.7599972 209.433329,63.9733384 210.38,62.96 C211.326671,61.9466616 212.039998,60.7266738 212.52,59.3 C213.000002,57.8733262 213.2,56.2800088 213.12,54.52 L202.6,54.52 L202.6,53 L214.64,53 L214.64,67 L213.12,67 L213.12,60.92 L213.04,60.92 C212.693332,61.9600052 212.173337,62.8999958 211.48,63.74 C210.786663,64.5800042 209.966671,65.2866638 209.02,65.86 C208.073329,66.4333362 207.020006,66.8799984 205.86,67.2 C204.699994,67.5200016 203.49334,67.68 202.24,67.68 C200.079989,67.68 198.166675,67.2933372 196.5,66.52 C194.833325,65.7466628 193.426672,64.69334 192.28,63.36 C191.133328,62.02666 190.26667,60.460009 189.68,58.66 C189.09333,56.859991 188.8,54.9333436 188.8,52.88 L188.8,52.88 Z M219.48,38.44 L221.68,38.44 L239.72,64.64 L239.8,64.64 L239.8,38.44 L241.56,38.44 L241.56,67 L239.48,67 L221.32,40.6 L221.24,40.6 L221.24,67 L219.48,67 L219.48,38.44 Z M246.6,38.44 L265.8,38.44 L265.8,39.96 L248.36,39.96 L248.36,51.4 L264.76,51.4 L264.76,52.92 L248.36,52.92 L248.36,65.48 L266,65.48 L266,67 L246.6,67 L246.6,38.44 Z M269,38.44 L280.92,38.44 C282.17334,38.44 283.346661,38.5666654 284.44,38.82 C285.533339,39.0733346 286.493329,39.4866638 287.32,40.06 C288.146671,40.6333362 288.793331,41.386662 289.26,42.32 C289.726669,43.253338 289.96,44.4133264 289.96,45.8 C289.96,47.7200096 289.420005,49.3399934 288.34,50.66 C287.259995,51.9800066 285.76001,52.7999984 283.84,53.12 L283.84,53.2 C285.146673,53.3600008 286.179996,53.706664 286.94,54.24 C287.700004,54.773336 288.266665,55.4266628 288.64,56.2 C289.013335,56.9733372 289.253333,57.826662 289.36,58.76 C289.466667,59.693338 289.52,60.626662 289.52,61.56 L289.52,63.2 C289.52,63.733336 289.546666,64.233331 289.6,64.7 C289.653334,65.166669 289.739999,65.599998 289.86,66 C289.980001,66.400002 290.146666,66.733332 290.36,67 L288.4,67 C288.026665,66.33333 287.82,65.5533378 287.78,64.66 C287.74,63.7666622 287.72,62.8400048 287.72,61.88 C287.72,60.9199952 287.68,59.9666714 287.6,59.02 C287.52,58.0733286 287.266669,57.2266704 286.84,56.48 C286.413331,55.7333296 285.740005,55.1333356 284.82,54.68 C283.899995,54.2266644 282.600008,54 280.92,54 L270.76,54 L270.76,67 L269,67 L269,38.44 Z M280.92,52.48 C281.960005,52.48 282.926662,52.3533346 283.82,52.1 C284.713338,51.8466654 285.479997,51.453336 286.12,50.92 C286.760003,50.386664 287.266665,49.7066708 287.64,48.88 C288.013335,48.0533292 288.2,47.0666724 288.2,45.92 C288.2,44.853328 288.000002,43.9400038 287.6,43.18 C287.199998,42.4199962 286.66667,41.8000024 286,41.32 C285.33333,40.8399976 284.560004,40.4933344 283.68,40.28 C282.799996,40.0666656 281.880005,39.96 280.92,39.96 L270.76,39.96 L270.76,52.48 L280.92,52.48 Z" id="UI/UX-DESIGNER" sketch:type="MSShapeGroup"></path>
            </g>
        </g>
    </g>
</svg>